<svg width="540" height="470" viewBox="0 0 540 470" fill="none" xmlns="http://www.w3.org/2000/svg">
<path opacity="0.7" d="M537.688 170.177C535.077 163.497 528.999 148.021 503.724 151.378L503.788 151.636C503.417 150.361 503.014 149.07 502.628 147.779L502.773 148.15C525.614 118.764 522.342 100.658 515.024 90.2823C504.562 75.4522 482.607 74.3711 468.889 75.6782C435.86 40.7251 394.158 16.7614 347.733 6.15928C300.567 -4.62034 251.45 -1.19929 205.702 16.0191C158.342 33.8506 118.188 65.2859 89.5591 106.952C83.8849 115.198 78.7105 123.831 74.0357 132.804C46.1647 138.71 23.8872 151.458 11.2171 169.306C0.432993 184.491 -2.64588 202.29 2.28676 220.751C7.33225 239.6 21.0018 259.513 42.0219 277.877C42.0219 277.877 42.0058 277.651 41.9897 277.264C42.7312 289.738 45.1975 301.841 48.3248 312.733C36.7185 330.129 30.4963 346.508 29.8354 361.419C29.1906 376.007 33.9459 389.433 43.5856 400.229C52.6771 410.411 75.0674 427.856 122.991 430.26C125.845 430.405 128.698 430.47 131.551 430.486C152.313 444.961 175.542 455.063 200.818 460.453C215.1 463.503 229.881 464.987 244.921 464.987C249.725 464.987 254.561 464.826 259.413 464.519C272.067 467.36 284.705 469.151 297.31 469.796C300.857 469.974 304.403 470.071 307.933 470.071C344.928 470.071 380.827 460.13 412.357 441.056C448.981 418.9 478.593 385.593 498.017 344.717C514.975 309.022 523.051 269.663 521.794 229.853C537.059 211.811 544.329 187.138 537.688 170.177ZM260.67 448.737C237.974 443.396 215.18 434.262 192.484 421.417C198.867 419.303 204.864 416.834 210.296 414.058C262.282 391.095 313.527 338.682 354.648 266.419L355.019 265.726C355.857 264.015 356.679 262.288 357.518 260.578C378.119 269.066 406.28 272.955 433.264 271.019C454.8 269.469 473.999 264.273 489.377 256.027C486.879 265.984 483.848 275.214 480.624 283.541C460.168 336.439 424.608 376.249 398.155 395.872C356.099 427.033 307.498 445.348 260.67 448.737ZM125.232 405.667C107.968 390.643 92.8959 371.924 80.4031 349.752C80.1774 349.365 58.2545 311.071 57.4485 272.035C57.4647 229.691 65.0087 191.14 79.8711 156.832C86.0772 155.557 92.6057 154.637 99.4405 154.185C135.388 151.797 174.349 161.399 209.232 181.28C230.333 193.076 247.694 202.855 263.008 211.489C298.31 231.37 318.83 242.94 334.853 250.766C334.241 252.025 333.644 253.284 333.032 254.526C310.593 293.885 263.652 363.662 200.044 391.596L199.335 391.934C180.62 401.633 152.313 406.845 125.232 405.667ZM462.973 102.111C466.922 107.694 470.614 113.649 473.999 119.975C493.02 155.541 497.566 190.51 495.116 221.445C494.664 221.784 494.229 222.155 493.778 222.478L492.923 223.091L492.182 223.833C479.56 236.469 458.008 244.473 431.507 246.393C409.052 248.023 385.082 244.909 368.157 238.26C369.462 235.468 370.768 232.693 372.058 229.949C400.009 170.371 426.542 113.923 462.973 102.111ZM509.156 175.922C512.557 175.664 514.234 177.923 514.733 179.182C516.523 183.765 515.314 192.108 511.364 200.741C511.155 192.592 510.446 184.249 509.124 175.761L509.156 175.922ZM494.874 104.531C497.856 108.049 498.146 116.36 492.778 122.266L493.246 123.476C491.569 119.846 489.78 116.215 487.83 112.568C485.396 108.017 482.8 103.628 480.076 99.4159C485.267 99.4482 491.424 100.465 494.874 104.531ZM446.128 82.2137C429.621 89.9918 414.404 104.273 399.364 125.962C381.584 151.62 366.109 184.556 349.732 219.428C348.329 222.43 346.911 225.447 345.476 228.481C330.146 220.993 310.029 209.649 275.097 189.978C259.767 181.344 242.39 171.549 221.338 159.785C210.57 153.637 199.415 148.408 188.067 144.067C200.85 118.458 220.145 95.9626 244.615 78.3892C272.647 58.25 306.047 45.9858 338.674 43.8395C365.884 42.0483 392.127 47.309 414.549 59.0892C426.155 65.1729 436.682 72.9187 446.128 82.2137ZM102.487 115.876C129.278 76.8723 166.886 47.4381 211.231 30.7362C254.093 14.599 300.099 11.4039 344.251 21.4896C353.052 23.5067 361.677 26.0241 370.091 29.0579C359.613 27.7508 348.781 27.4442 337.642 28.1704C302.146 30.5102 265.861 43.8234 235.475 65.6409C208.329 85.1345 187.035 110.244 173.124 138.92C148.058 131.206 122.363 127.93 97.8124 129.56C96.3777 129.657 94.9914 129.802 93.5729 129.931C96.3938 125.155 99.3438 120.459 102.487 115.876ZM31.3023 183.636C37.5568 174.825 47.825 167.595 60.8014 162.448C50.1463 190.833 43.8435 221.865 42.1993 254.591C42.2637 253.252 42.3121 252.412 42.3121 252.412C24.0162 236.42 11.6685 211.295 31.3023 183.636ZM42.1831 254.752C41.9736 258.883 41.8446 263.031 41.7963 267.21C41.7963 267 41.7963 266.807 41.7963 266.597C41.8285 262.53 42.0542 257.609 42.1831 254.752ZM54.6598 331.549C54.3213 330.742 53.9828 329.919 53.6443 329.096C52.2096 325.611 50.8556 321.35 49.8884 318.042C51.4197 322.867 53.0317 327.402 54.6598 331.549ZM61.9459 383.817C50.0012 370.424 52.258 354.06 58.3029 340.392C58.3029 340.392 58.2706 340.328 58.2384 340.231C62.7036 350.446 66.4272 356.933 66.7819 357.562C76.2442 374.345 87.1089 389.304 99.2309 402.343C82.6598 398.647 69.4255 392.193 61.9459 383.817ZM159.035 428.872C163.13 428.356 167.143 427.694 171.093 426.936C181.974 433.778 192.887 439.83 203.832 445.058C188.002 441.669 173.027 436.231 159.035 428.872ZM483.816 338.02C465.729 376.104 438.197 407.103 404.217 427.662C377.7 443.702 347.814 452.707 316.831 454.159C348.41 444.735 379.36 429.324 407.489 408.475C435.715 387.545 473.58 345.217 495.245 289.189C499.065 279.297 502.66 268.195 505.481 256.156C503.305 284.574 496.018 312.314 483.816 338.02Z" fill="#F9F3E8"/>
</svg>
