<svg width="48" height="48" viewBox="0 0 48 48" fill="none" xmlns="http://www.w3.org/2000/svg">
<path d="M24 9.18997C21.8208 7.18618 18.9684 6.07407 16.008 6.07397C14.441 6.07561 12.8899 6.38709 11.4438 6.99051C9.99776 7.59393 8.68529 8.47736 7.58196 9.58997C2.87596 14.316 2.87796 21.708 7.58596 26.414L22.25 41.078C22.59 41.676 23.246 42.062 24 42.062C24.3096 42.059 24.6141 41.9834 24.8892 41.8413C25.1643 41.6993 25.4023 41.4947 25.584 41.244L40.414 26.414C45.122 21.706 45.122 14.316 40.41 9.58197C39.3072 8.47141 37.9958 7.58977 36.5511 6.98774C35.1064 6.38571 33.557 6.07517 31.992 6.07397C29.0316 6.07446 26.1794 7.18652 24 9.18997ZM37.582 12.41C40.708 15.552 40.71 20.46 37.586 23.586L24 37.172L10.414 23.586C7.28996 20.46 7.29196 15.552 10.41 12.418C11.93 10.906 13.918 10.074 16.008 10.074C18.098 10.074 20.078 10.906 21.586 12.414L22.586 13.414C22.7715 13.5999 22.9919 13.7473 23.2346 13.848C23.4772 13.9486 23.7373 14.0004 24 14.0004C24.2626 14.0004 24.5227 13.9486 24.7653 13.848C25.008 13.7473 25.2284 13.5999 25.414 13.414L26.414 12.414C29.438 9.39597 34.562 9.40397 37.582 12.41Z" fill="#F45A45"/>
</svg>
