<svg width="48" height="48" viewBox="0 0 48 48" fill="none" xmlns="http://www.w3.org/2000/svg">
<path d="M40 16H28.776L31.022 9.266C31.426 8.05 31.222 6.702 30.472 5.662C29.722 4.622 28.506 4 27.224 4H24C23.406 4 22.844 4.264 22.462 4.72L13.062 16H8C5.794 16 4 17.794 4 20V38C4 40.206 5.794 42 8 42H34.614C35.4278 41.9973 36.2216 41.7477 36.8904 41.2842C37.5593 40.8206 38.0717 40.165 38.36 39.404L43.874 24.702C43.9577 24.4774 44.0004 24.2397 44 24V20C44 17.794 42.206 16 40 16ZM8 20H12V38H8V20ZM40 23.638L34.614 38H16V18.724L24.936 8H27.228L24.104 17.366C24.0026 17.6666 23.9743 17.9871 24.0215 18.3009C24.0687 18.6146 24.19 18.9126 24.3753 19.1701C24.5607 19.4276 24.8047 19.6372 25.0873 19.7815C25.3698 19.9259 25.6827 20.0007 26 20H40V23.638Z" fill="#F45A45"/>
</svg>
