<svg width="269" height="224" viewBox="0 0 269 224" fill="none" xmlns="http://www.w3.org/2000/svg">
<path d="M44.8292 29.6937C49.1303 34.4042 51.2685 40.3726 51.2685 47.5987C51.2685 54.8248 49.1303 60.7438 44.8784 65.405C40.6265 70.0662 35.1703 72.3845 28.559 72.3845C22.4392 72.3845 17.917 70.3622 15.0168 66.3175V71.25H0.147461V0H16.4177V26.9808C19.5145 24.0706 23.5452 22.6155 28.5344 22.6155C35.0966 22.6155 40.5282 24.9831 44.8292 29.6937ZM31.9998 54.8741C33.7448 53.0737 34.605 50.6075 34.605 47.5247C34.605 44.4172 33.6957 41.9756 31.9015 40.1752C30.1073 38.3749 27.92 37.4623 25.3148 37.4623C22.7341 37.4623 20.5467 38.3749 18.7772 40.2245C17.0076 42.0742 16.1228 44.5405 16.1228 47.6233C16.1228 50.7308 16.983 53.1724 18.728 54.9481C20.473 56.7238 22.6604 57.6116 25.3148 57.6116C28.0429 57.5623 30.2548 56.6744 31.9998 54.8741Z" fill="#515151"/>
<path d="M59.4774 71.2505V23.7502H75.7477V71.2505H59.4774Z" fill="#515151"/>
<path d="M84.0058 47.4999C83.8829 40.7177 86.3653 34.848 91.4774 29.8908C96.5895 24.909 102.685 22.492 109.738 22.6153C116.817 22.492 122.912 24.909 128.049 29.8908C133.185 34.8727 135.692 40.7423 135.569 47.4999C135.692 54.2821 133.185 60.1519 128.049 65.109C122.912 70.0909 116.792 72.5078 109.738 72.3845C102.66 72.5078 96.5895 70.0909 91.4774 65.109C86.3653 60.1519 83.8829 54.2821 84.0058 47.4999ZM116.374 54.5781C118.07 52.7037 118.93 50.3608 118.93 47.4999C118.93 44.639 118.07 42.2961 116.325 40.4217C114.58 38.5474 112.417 37.6102 109.837 37.6102C107.133 37.6102 104.921 38.5227 103.201 40.3724C101.505 42.1975 100.645 44.5897 100.645 47.4999C100.645 50.4841 101.505 52.8764 103.201 54.6767C104.897 56.4771 107.109 57.3896 109.837 57.3896C112.491 57.3896 114.678 56.4524 116.374 54.5781Z" fill="#515151"/>
<path d="M53.5051 82.8162H75.4527V144.374C75.4527 156.064 72.1348 164.893 65.5235 170.886C58.9121 176.879 49.7447 179.863 37.9967 179.863C24.4791 179.863 12.7557 175.646 2.77726 167.236L14.9431 150.268C21.9231 155.595 28.7802 158.259 35.4898 158.259C40.2333 158.259 44.0919 157.198 47.0167 155.102C49.9414 153.006 51.416 149.948 51.416 145.928V143.412C47.1395 147.703 41.0197 149.874 33.1058 149.874C23.4223 149.874 15.4838 146.717 9.29027 140.403C3.09675 134.09 0 125.754 0 115.371C0 104.988 3.12133 96.7012 9.364 90.4863C15.6067 84.2713 23.5206 81.1638 33.1304 81.1638C42.4452 81.1638 49.2532 84.0987 53.5297 89.9931V82.8162H53.5051ZM51.8338 114.927C51.8338 110.438 50.5558 107.01 47.9997 104.618C45.4437 102.226 42.1995 101.042 38.2917 101.042C34.2855 101.042 30.9921 102.275 28.4361 104.766C25.88 107.257 24.602 110.685 24.602 115.075C24.602 119.465 25.9292 123.041 28.5836 125.803C31.2379 128.565 34.4822 129.946 38.2917 129.946C42.1012 129.946 45.3208 128.59 47.926 125.877C50.5312 123.139 51.8338 119.514 51.8338 114.927Z" fill="#515151"/>
<path d="M137.511 82.8164V104.125H131.784C126.205 104.125 122.027 105.481 119.274 108.194C116.521 110.907 115.145 115.149 115.145 120.945V152.907H91.1084V82.7917H113.056V90.2152C117.529 84.5182 123.403 81.6573 130.653 81.6573C132.988 81.682 135.274 82.0766 137.511 82.8164Z" fill="#515151"/>
<path d="M208.761 112.263V152.932H186.813V147.185C181.603 152.143 174.893 154.609 166.684 154.609C159.336 154.609 153.486 152.537 149.136 148.369C144.81 144.201 142.647 139.047 142.647 132.881C142.647 126.346 145.081 121.216 149.996 117.516C154.887 113.817 161.572 111.967 170.051 111.967H184.724V110.857C184.724 104.864 181.185 101.88 174.107 101.88C171.034 101.88 168.208 102.546 165.652 103.853C163.096 105.16 160.073 107.355 156.632 110.438L145.449 95.1474C154.666 85.8003 165.21 81.1144 177.031 81.1144C186.911 81.1144 194.653 83.8026 200.306 89.1791C205.959 94.5802 208.761 102.25 208.761 112.263ZM184.724 127.258V126.691H173.394C169.117 126.691 166.955 128.467 166.955 132.018C166.955 133.695 167.594 135.027 168.847 136.013C170.1 137 171.845 137.493 174.082 137.493C177.252 137.493 179.809 136.556 181.775 134.682C183.765 132.832 184.724 130.341 184.724 127.258Z" fill="#F45A45"/>
<path d="M252.091 76.9219V82.8163H266.198V103.015H252.091V152.932H228.054V103.015H218.272V82.8163H228.054V74.5543C228.054 65.3059 230.61 58.2524 235.746 53.3692C240.859 48.5107 248.084 46.0691 257.399 46.0691C261.971 46.0691 265.829 46.6363 269 47.7461V67.9448C268.262 67.9448 267.451 67.9201 266.616 67.8708C265.78 67.8215 265.117 67.7721 264.65 67.7228C264.183 67.6735 263.814 67.6488 263.544 67.6488C259.439 67.6488 256.514 68.364 254.745 69.8191C252.975 71.2988 252.091 73.6418 252.091 76.9219Z" fill="#515151"/>
<path d="M1.98 205H4.54V214.94L12.06 205H14.48V219H11.92V209.08L4.4 219H1.98V205ZM22.9853 219.14C21.8786 219.14 20.8853 218.907 20.0053 218.44C19.1253 217.973 18.4386 217.327 17.9453 216.5C17.452 215.66 17.2053 214.713 17.2053 213.66C17.2053 212.607 17.452 211.667 17.9453 210.84C18.4386 210.013 19.1186 209.367 19.9853 208.9C20.8653 208.433 21.8653 208.2 22.9853 208.2C24.0386 208.2 24.9586 208.413 25.7453 208.84C26.5453 209.267 27.1453 209.88 27.5453 210.68L25.6253 211.8C25.3186 211.307 24.932 210.94 24.4653 210.7C24.012 210.447 23.512 210.32 22.9653 210.32C22.032 210.32 21.2586 210.627 20.6453 211.24C20.032 211.84 19.7253 212.647 19.7253 213.66C19.7253 214.673 20.0253 215.487 20.6253 216.1C21.2386 216.7 22.0186 217 22.9653 217C23.512 217 24.012 216.88 24.4653 216.64C24.932 216.387 25.3186 216.013 25.6253 215.52L27.5453 216.64C27.132 217.44 26.5253 218.06 25.7253 218.5C24.9386 218.927 24.0253 219.14 22.9853 219.14ZM38.1088 210.44H34.3688V219H31.8688V210.44H28.1088V208.32H38.1088V210.44ZM44.2134 219.14C43.1334 219.14 42.1601 218.907 41.2934 218.44C40.4268 217.973 39.7468 217.327 39.2534 216.5C38.7734 215.66 38.5334 214.713 38.5334 213.66C38.5334 212.607 38.7734 211.667 39.2534 210.84C39.7468 210.013 40.4268 209.367 41.2934 208.9C42.1601 208.433 43.1334 208.2 44.2134 208.2C45.3068 208.2 46.2868 208.433 47.1534 208.9C48.0201 209.367 48.6934 210.013 49.1734 210.84C49.6668 211.667 49.9134 212.607 49.9134 213.66C49.9134 214.713 49.6668 215.66 49.1734 216.5C48.6934 217.327 48.0201 217.973 47.1534 218.44C46.2868 218.907 45.3068 219.14 44.2134 219.14ZM44.2134 217C45.1334 217 45.8934 216.693 46.4934 216.08C47.0934 215.467 47.3934 214.66 47.3934 213.66C47.3934 212.66 47.0934 211.853 46.4934 211.24C45.8934 210.627 45.1334 210.32 44.2134 210.32C43.2934 210.32 42.5334 210.627 41.9334 211.24C41.3468 211.853 41.0534 212.66 41.0534 213.66C41.0534 214.66 41.3468 215.467 41.9334 216.08C42.5334 216.693 43.2934 217 44.2134 217ZM58.3031 208.2C59.3431 208.2 60.2698 208.427 61.0831 208.88C61.9098 209.333 62.5565 209.973 63.0231 210.8C63.4898 211.627 63.7231 212.58 63.7231 213.66C63.7231 214.74 63.4898 215.7 63.0231 216.54C62.5565 217.367 61.9098 218.007 61.0831 218.46C60.2698 218.913 59.3431 219.14 58.3031 219.14C56.8631 219.14 55.7231 218.66 54.8831 217.7V222.88H52.3831V208.32H54.7631V209.72C55.1765 209.213 55.6831 208.833 56.2831 208.58C56.8965 208.327 57.5698 208.2 58.3031 208.2ZM58.0231 217C58.9431 217 59.6965 216.693 60.2831 216.08C60.8831 215.467 61.1831 214.66 61.1831 213.66C61.1831 212.66 60.8831 211.853 60.2831 211.24C59.6965 210.627 58.9431 210.32 58.0231 210.32C57.4231 210.32 56.8831 210.46 56.4031 210.74C55.9231 211.007 55.5431 211.393 55.2631 211.9C54.9831 212.407 54.8431 212.993 54.8431 213.66C54.8431 214.327 54.9831 214.913 55.2631 215.42C55.5431 215.927 55.9231 216.32 56.4031 216.6C56.8831 216.867 57.4231 217 58.0231 217ZM66.2113 208.32H68.7113V215.36L74.6113 208.32H76.8913V219H74.3913V211.96L68.5113 219H66.2113V208.32ZM89.2742 208.32V219H87.0342V215.78H84.2142L82.0342 219H79.3542L81.8742 215.44C81.1009 215.173 80.5076 214.767 80.0942 214.22C79.6942 213.66 79.4942 212.973 79.4942 212.16C79.4942 210.933 79.9276 209.987 80.7942 209.32C81.6609 208.653 82.8542 208.32 84.3742 208.32H89.2742ZM84.4542 210.42C82.8409 210.42 82.0342 211.027 82.0342 212.24C82.0342 213.44 82.8142 214.04 84.3742 214.04H87.0342V210.42H84.4542ZM108.664 219V211.92L105.064 217.88H103.984L100.444 211.9V219H98.1644V208.32H100.784L104.584 215L108.564 208.32H110.904L110.924 219H108.664ZM119.038 219.14C117.958 219.14 116.984 218.907 116.118 218.44C115.251 217.973 114.571 217.327 114.078 216.5C113.598 215.66 113.358 214.713 113.358 213.66C113.358 212.607 113.598 211.667 114.078 210.84C114.571 210.013 115.251 209.367 116.118 208.9C116.984 208.433 117.958 208.2 119.038 208.2C120.131 208.2 121.111 208.433 121.978 208.9C122.844 209.367 123.518 210.013 123.998 210.84C124.491 211.667 124.738 212.607 124.738 213.66C124.738 214.713 124.491 215.66 123.998 216.5C123.518 217.327 122.844 217.973 121.978 218.44C121.111 218.907 120.131 219.14 119.038 219.14ZM119.038 217C119.958 217 120.718 216.693 121.318 216.08C121.918 215.467 122.218 214.66 122.218 213.66C122.218 212.66 121.918 211.853 121.318 211.24C120.718 210.627 119.958 210.32 119.038 210.32C118.118 210.32 117.358 210.627 116.758 211.24C116.171 211.853 115.878 212.66 115.878 213.66C115.878 214.66 116.171 215.467 116.758 216.08C117.358 216.693 118.118 217 119.038 217ZM137.207 213.72C137.207 213.893 137.194 214.14 137.167 214.46H128.787C128.934 215.247 129.314 215.873 129.927 216.34C130.554 216.793 131.327 217.02 132.247 217.02C133.421 217.02 134.387 216.633 135.147 215.86L136.487 217.4C136.007 217.973 135.401 218.407 134.667 218.7C133.934 218.993 133.107 219.14 132.187 219.14C131.014 219.14 129.981 218.907 129.087 218.44C128.194 217.973 127.501 217.327 127.007 216.5C126.527 215.66 126.287 214.713 126.287 213.66C126.287 212.62 126.521 211.687 126.987 210.86C127.467 210.02 128.127 209.367 128.967 208.9C129.807 208.433 130.754 208.2 131.807 208.2C132.847 208.2 133.774 208.433 134.587 208.9C135.414 209.353 136.054 210 136.507 210.84C136.974 211.667 137.207 212.627 137.207 213.72ZM131.807 210.2C131.007 210.2 130.327 210.44 129.767 210.92C129.221 211.387 128.887 212.013 128.767 212.8H134.827C134.721 212.027 134.394 211.4 133.847 210.92C133.301 210.44 132.621 210.2 131.807 210.2ZM139.942 208.32H142.442V215.36L148.342 208.32H150.622V219H148.122V211.96L142.242 219H139.942V208.32ZM145.122 207.06C144.042 207.06 143.215 206.813 142.642 206.32C142.082 205.813 141.795 205.08 141.782 204.12H143.442C143.455 204.6 143.602 204.98 143.882 205.26C144.175 205.54 144.582 205.68 145.102 205.68C145.608 205.68 146.008 205.54 146.302 205.26C146.608 204.98 146.768 204.6 146.782 204.12H148.482C148.468 205.08 148.175 205.813 147.602 206.32C147.028 206.813 146.202 207.06 145.122 207.06ZM164.372 219.14C163.265 219.14 162.272 218.907 161.392 218.44C160.512 217.973 159.825 217.327 159.332 216.5C158.839 215.66 158.592 214.713 158.592 213.66C158.592 212.607 158.839 211.667 159.332 210.84C159.825 210.013 160.505 209.367 161.372 208.9C162.252 208.433 163.252 208.2 164.372 208.2C165.425 208.2 166.345 208.413 167.132 208.84C167.932 209.267 168.532 209.88 168.932 210.68L167.012 211.8C166.705 211.307 166.319 210.94 165.852 210.7C165.399 210.447 164.899 210.32 164.352 210.32C163.419 210.32 162.645 210.627 162.032 211.24C161.419 211.84 161.112 212.647 161.112 213.66C161.112 214.673 161.412 215.487 162.012 216.1C162.625 216.7 163.405 217 164.352 217C164.899 217 165.399 216.88 165.852 216.64C166.319 216.387 166.705 216.013 167.012 215.52L168.932 216.64C168.519 217.44 167.912 218.06 167.112 218.5C166.325 218.927 165.412 219.14 164.372 219.14ZM180.977 213.72C180.977 213.893 180.964 214.14 180.937 214.46H172.557C172.704 215.247 173.084 215.873 173.697 216.34C174.324 216.793 175.097 217.02 176.017 217.02C177.19 217.02 178.157 216.633 178.917 215.86L180.257 217.4C179.777 217.973 179.17 218.407 178.437 218.7C177.704 218.993 176.877 219.14 175.957 219.14C174.784 219.14 173.75 218.907 172.857 218.44C171.964 217.973 171.27 217.327 170.777 216.5C170.297 215.66 170.057 214.713 170.057 213.66C170.057 212.62 170.29 211.687 170.757 210.86C171.237 210.02 171.897 209.367 172.737 208.9C173.577 208.433 174.524 208.2 175.577 208.2C176.617 208.2 177.544 208.433 178.357 208.9C179.184 209.353 179.824 210 180.277 210.84C180.744 211.667 180.977 212.627 180.977 213.72ZM175.577 210.2C174.777 210.2 174.097 210.44 173.537 210.92C172.99 211.387 172.657 212.013 172.537 212.8H178.597C178.49 212.027 178.164 211.4 177.617 210.92C177.07 210.44 176.39 210.2 175.577 210.2ZM194.211 219V211.92L190.611 217.88H189.531L185.991 211.9V219H183.711V208.32H186.331L190.131 215L194.111 208.32H196.451L196.471 219H194.211ZM205.185 211.84C206.545 211.84 207.585 212.147 208.305 212.76C209.038 213.373 209.405 214.24 209.405 215.36C209.405 216.533 209.005 217.44 208.205 218.08C207.405 218.72 206.278 219.033 204.825 219.02L199.825 219V208.32H202.325V211.82L205.185 211.84ZM204.605 217.18C205.338 217.193 205.898 217.04 206.285 216.72C206.671 216.4 206.865 215.933 206.865 215.32C206.865 214.72 206.678 214.28 206.305 214C205.931 213.72 205.365 213.573 204.605 213.56L202.325 213.54V217.16L204.605 217.18ZM211.602 208.32H214.102V215.36L220.002 208.32H222.282V219H219.782V211.96L213.902 219H211.602V208.32Z" fill="#515151"/>
</svg>
