<svg width="48" height="48" viewBox="0 0 48 48" fill="none" xmlns="http://www.w3.org/2000/svg">
<path d="M41.99 13.8C41.9568 13.4639 41.8388 13.1417 41.6471 12.8636C41.4554 12.5855 41.1963 12.3606 40.894 12.21L24.894 4.20997C24.6161 4.07093 24.3097 3.99854 23.999 3.99854C23.6883 3.99854 23.3819 4.07093 23.104 4.20997L7.10401 12.21C6.80255 12.3615 6.54423 12.5866 6.35299 12.8646C6.16175 13.1425 6.04377 13.4643 6.01001 13.8C5.98801 14.014 4.08801 35.334 23.188 43.828C23.4432 43.9431 23.72 44.0027 24 44.0027C24.28 44.0027 24.5568 43.9431 24.812 43.828C43.912 35.334 42.012 14.016 41.99 13.8ZM24 39.794C10.462 33.25 9.82201 19.284 9.93201 15.27L24 8.23597L38.058 15.266C38.132 19.244 37.402 33.302 24 39.794Z" fill="#F45A45"/>
<path d="M22.0001 25.1721L17.4141 20.5861L14.5861 23.4141L22.0001 30.8281L33.4141 19.4141L30.5861 16.5861L22.0001 25.1721Z" fill="#F45A45"/>
</svg>
