<svg width="48" height="48" viewBox="0 0 48 48" fill="none" xmlns="http://www.w3.org/2000/svg">
<path d="M40.58 16.5799L32 25.1599L29.4 22.5799L26.58 25.4199L31.98 30.8199L43.42 19.4199L40.58 16.5799ZM8 15.9999C7.97537 17.0572 8.16546 18.1086 8.55878 19.0903C8.9521 20.072 9.54047 20.9638 10.2883 21.7116C11.0361 22.4595 11.9279 23.0478 12.9096 23.4411C13.8914 23.8345 14.9427 24.0246 16 23.9999C17.0573 24.0246 18.1086 23.8345 19.0904 23.4411C20.0721 23.0478 20.9639 22.4595 21.7117 21.7116C22.4595 20.9638 23.0479 20.072 23.4412 19.0903C23.8345 18.1086 24.0246 17.0572 24 15.9999C24.0246 14.9426 23.8345 13.8913 23.4412 12.9096C23.0479 11.9278 22.4595 11.0361 21.7117 10.2882C20.9639 9.54039 20.0721 8.95202 19.0904 8.55871C18.1086 8.16539 17.0573 7.97529 16 7.99992C14.9427 7.97529 13.8914 8.16539 12.9096 8.55871C11.9279 8.95202 11.0361 9.54039 10.2883 10.2882C9.54047 11.0361 8.9521 11.9278 8.55878 12.9096C8.16546 13.8913 7.97537 14.9426 8 15.9999ZM20 15.9999C20.0257 16.532 19.9399 17.0636 19.748 17.5606C19.556 18.0575 19.2623 18.5088 18.8856 18.8855C18.5089 19.2622 18.0576 19.556 17.5606 19.7479C17.0637 19.9398 16.5321 20.0256 16 19.9999C15.4679 20.0256 14.9363 19.9398 14.4394 19.7479C13.9424 19.556 13.4911 19.2622 13.1144 18.8855C12.7377 18.5088 12.444 18.0575 12.252 17.5606C12.0601 17.0636 11.9743 16.532 12 15.9999C11.9743 15.4678 12.0601 14.9362 12.252 14.4393C12.444 13.9423 12.7377 13.491 13.1144 13.1143C13.4911 12.7376 13.9424 12.4439 14.4394 12.252C14.9363 12.0601 15.4679 11.9742 16 11.9999C16.5321 11.9742 17.0637 12.0601 17.5606 12.252C18.0576 12.4439 18.5089 12.7376 18.8856 13.1143C19.2623 13.491 19.556 13.9423 19.748 14.4393C19.9399 14.9362 20.0257 15.4678 20 15.9999V15.9999ZM8 35.9999C8 34.4086 8.63214 32.8825 9.75736 31.7573C10.8826 30.6321 12.4087 29.9999 14 29.9999H18C19.5913 29.9999 21.1174 30.6321 22.2426 31.7573C23.3679 32.8825 24 34.4086 24 35.9999V37.9999H28V35.9999C28 34.6867 27.7413 33.3863 27.2388 32.1731C26.7362 30.9598 25.9997 29.8574 25.0711 28.9289C24.1425 28.0003 23.0401 27.2637 21.8268 26.7611C20.6136 26.2586 19.3132 25.9999 18 25.9999H14C11.3478 25.9999 8.8043 27.0535 6.92893 28.9289C5.05357 30.8042 4 33.3478 4 35.9999V37.9999H8V35.9999Z" fill="#F45A45"/>
</svg>
